<svg xmlns="http://www.w3.org/2000/svg" width="574" height="32" viewBox="0 0 574 32"><path d="M36.413,22.71H27.849A2.053,2.053,0,0,0,25.8,24.763V32H11.347V24.763A2.053,2.053,0,0,0,9.294,22.71H.73V9.29H9.294a2.053,2.053,0,0,0,2.053-2.053V0H25.8V7.237A2.053,2.053,0,0,0,27.849,9.29h8.564Z" fill="#c9d100"/><path d="M82.016,9.29V22.71H73.452A2.053,2.053,0,0,0,71.4,24.763V32H56.947V24.763A2.054,2.054,0,0,0,54.9,22.71H46.33V9.29H54.9A2.054,2.054,0,0,0,56.95,7.237V0H71.4V7.237h0A2.053,2.053,0,0,0,73.452,9.29Z" fill="#4a69af"/><path d="M258.921,1.018a21.248,21.248,0,0,1,0,29.964.541.541,0,0,1-.387.161H245.979a.548.548,0,0,1-.388-.161,21.25,21.25,0,0,1,0-29.964.548.548,0,0,1,.388-.161h12.557A.541.541,0,0,1,258.921,1.018ZM255.6,24.869a14.721,14.721,0,0,0,0-17.738,1.064,1.064,0,0,0-.852-.415h-4.975a1.069,1.069,0,0,0-.853.415,14.724,14.724,0,0,0,0,17.738,1.068,1.068,0,0,0,.852.415h4.974a1.064,1.064,0,0,0,.852-.415ZM117.063,20.527a8.989,8.989,0,0,1-1.545,7.563,8.446,8.446,0,0,1-7.169,3.41h-3.367A10.247,10.247,0,0,1,95.86,26a17.607,17.607,0,0,1-1.54-4.027.3.3,0,0,1-.007-.066.317.317,0,0,1,.317-.315h6.175a.549.549,0,0,1,.531.386,7.735,7.735,0,0,0,.485,1.238,4.8,4.8,0,0,0,3.927,2.431h2.141a3.188,3.188,0,0,0,3.055-1.739c.509-1.394.011-2.717-2.253-3.862a39.741,39.741,0,0,0-3.7-1.544c-2.575-.981-5.314-2-7.53-4.826a7.758,7.758,0,0,1-1.637-4.032c-.015-.2-.024-.4-.025-.6A8.488,8.488,0,0,1,104.23.5H107.4a9.451,9.451,0,0,1,6.452,2.575,11.863,11.863,0,0,1,3.133,6.064.343.343,0,0,1,0,.056.316.316,0,0,1-.318.314h-6.148a.535.535,0,0,1-.508-.359,3.848,3.848,0,0,0-3.7-2.794h-1.78a2.4,2.4,0,0,0-2.269,1.162,2.167,2.167,0,0,0,.028,2.391c.974,1.276,2.485,1.952,4.874,2.861a43.83,43.83,0,0,1,4.4,1.88C114.51,16.157,116.337,18.08,117.063,20.527Zm30.118,10.381a.189.189,0,0,1,.008.053.18.18,0,0,1-.18.182h-6.043a.18.18,0,0,1-.172-.126l-1.3-4.092a.541.541,0,0,0-.516-.378h-9.416a.54.54,0,0,0-.515.378l-1.3,4.092a.179.179,0,0,1-.171.126h-5.854a.189.189,0,0,1-.053-.008.181.181,0,0,1-.119-.227L131.037.983a.18.18,0,0,1,.172-.126h6.308a.18.18,0,0,1,.172.126Zm-9.5-9.958a.18.18,0,0,0,.119-.225L134.358,9.617a.089.089,0,0,0-.059-.059.09.09,0,0,0-.113.059l-3.444,11.108a.2.2,0,0,0-.008.054.181.181,0,0,0,.181.179h6.715A.189.189,0,0,0,137.683,20.95ZM201.19,1.037V22.129h0a9.014,9.014,0,0,1-9.014,9.014H188.02a9.014,9.014,0,0,1-9.014-9.014V1.037a.182.182,0,0,1,.18-.18h5.95a.182.182,0,0,1,.18.18v20.19h0a4.056,4.056,0,0,0,4.056,4.056h1.453a4.056,4.056,0,0,0,4.055-4.057V1.037a.181.181,0,0,1,.181-.18h5.949A.182.182,0,0,1,201.19,1.037Zm-29.223,0V6.718a.179.179,0,0,1-.18.178h-7.474a.542.542,0,0,0-.541.541V30.963a.181.181,0,0,1-.18.18h-5.949a.181.181,0,0,1-.18-.18V7.437h0a.541.541,0,0,0-.541-.541h-7.476a.179.179,0,0,1-.178-.18V1.037a.181.181,0,0,1,.18-.18h22.339A.181.181,0,0,1,171.967,1.037Zm55.593-.019a21.248,21.248,0,0,1,0,29.964.541.541,0,0,1-.387.161H210.13a.182.182,0,0,1-.18-.18V1.037a.182.182,0,0,1,.18-.18h17.048A.542.542,0,0,1,227.56,1.018Zm-3.321,23.85a14.718,14.718,0,0,0,0-17.736,1.07,1.07,0,0,0-.853-.416H216.8a.542.542,0,0,0-.54.541V24.743a.542.542,0,0,0,.54.541h6.582a1.068,1.068,0,0,0,.852-.416Zm101.877,6.04a.189.189,0,0,1,.008.053.18.18,0,0,1-.18.182H319.9a.18.18,0,0,1-.172-.126l-1.3-4.092a.54.54,0,0,0-.515-.378H308.5a.54.54,0,0,0-.515.378l-1.3,4.092a.18.18,0,0,1-.172.126h-5.854a.171.171,0,0,1-.055-.009.18.18,0,0,1-.116-.226L309.973.983a.18.18,0,0,1,.172-.126h6.308a.179.179,0,0,1,.171.126Zm-9.5-9.958a.18.18,0,0,0,.119-.225L313.29,9.617a.089.089,0,0,0-.059-.059.09.09,0,0,0-.113.059l-3.444,11.108a.189.189,0,0,0-.008.053.181.181,0,0,0,.18.18h6.716A.162.162,0,0,0,316.611,20.95ZM295.06,30.889a.192.192,0,0,1,.014.068.182.182,0,0,1-.18.182h-6.6a.179.179,0,0,1-.167-.113l-4.069-10.1a.812.812,0,0,0-.753-.508h-3.988a.542.542,0,0,0-.541.54v10.05h0a.134.134,0,0,1-.135.135h-5.994a.181.181,0,0,1-.181-.18V1.035a.181.181,0,0,1,.181-.18h16.941a.806.806,0,0,1,.532.2,12.562,12.562,0,0,1,4.671,9.584,12.424,12.424,0,0,1-4.2,9.161.179.179,0,0,0-.044.2Zm-8.047-16.452a5.911,5.911,0,0,0,1.47-3.8,5.91,5.91,0,0,0-1.47-3.8,1.088,1.088,0,0,0-.836-.391h-6.86a.541.541,0,0,0-.541.541v7.3a.541.541,0,0,0,.541.541h6.86a1.088,1.088,0,0,0,.836-.391Zm223.365-13.4V30.965a.182.182,0,0,1-.18.18h-5.637a.542.542,0,0,1-.46-.256L492.3,11.853a.088.088,0,0,0-.077-.043.09.09,0,0,0-.09.09V30.963a.181.181,0,0,1-.18.18H486.23a.181.181,0,0,1-.18-.18V1.037a.181.181,0,0,1,.18-.18h5.64a.542.542,0,0,1,.46.256l11.8,19.034a.089.089,0,0,0,.166-.047V1.037a.181.181,0,0,1,.181-.18H510.2A.182.182,0,0,1,510.378,1.037Zm-34.662,0V30.963a.182.182,0,0,1-.18.18h-5.949a.181.181,0,0,1-.181-.18V1.037a.181.181,0,0,1,.181-.18h5.949A.182.182,0,0,1,475.716,1.037ZM571.451,28.09a8.448,8.448,0,0,1-7.17,3.41h-3.366a10.246,10.246,0,0,1-9.123-5.5,17.571,17.571,0,0,1-1.539-4.025.3.3,0,0,1-.007-.067.317.317,0,0,1,.317-.315h6.175a.552.552,0,0,1,.531.387,7.643,7.643,0,0,0,.485,1.238,4.8,4.8,0,0,0,3.927,2.43h2.141a3.188,3.188,0,0,0,3.055-1.739c.509-1.395.01-2.717-2.253-3.862-1.153-.583-2.56-1.108-3.705-1.544-2.575-.981-5.315-2.006-7.53-4.826a7.75,7.75,0,0,1-1.637-4.032q-.024-.3-.025-.6A8.487,8.487,0,0,1,560.158.5h3.172a9.454,9.454,0,0,1,6.457,2.575,11.87,11.87,0,0,1,3.132,6.063.343.343,0,0,1,0,.056.317.317,0,0,1-.317.315h-6.149a.536.536,0,0,1-.508-.359,3.845,3.845,0,0,0-3.7-2.794h-1.78A2.4,2.4,0,0,0,558.2,7.518a2.167,2.167,0,0,0,.028,2.391c.973,1.276,2.485,1.952,4.873,2.861a43.6,43.6,0,0,1,4.4,1.88c2.941,1.507,4.768,3.43,5.493,5.88A8.982,8.982,0,0,1,571.451,28.09Zm-27.7-13.727c.042.537.068,1.086.068,1.637a21.226,21.226,0,0,1-6.18,14.989.548.548,0,0,1-.388.161H524.7a.548.548,0,0,1-.388-.161,21.251,21.251,0,0,1,0-29.965.546.546,0,0,1,.387-.16h12.548a.542.542,0,0,1,.386.16,19.973,19.973,0,0,1,5.049,8.088.307.307,0,0,1,.011.079.316.316,0,0,1-.311.321h-6.244a.546.546,0,0,1-.5-.316,8.747,8.747,0,0,0-1.316-2.088,1.086,1.086,0,0,0-.832-.389h-5a1.064,1.064,0,0,0-.852.415,14.723,14.723,0,0,0,0,17.737,1.07,1.07,0,0,0,.853.416h4.974a1.068,1.068,0,0,0,.852-.416,14.694,14.694,0,0,0,2.511-5.217.165.165,0,0,0,0-.044.182.182,0,0,0-.182-.182h-5.329a.182.182,0,0,1-.18-.18V14.38a.181.181,0,0,1,.18-.18h12.252A.182.182,0,0,1,543.755,14.363ZM454.56,1.018a21.25,21.25,0,0,1,0,29.964.548.548,0,0,1-.388.161H437.13a.181.181,0,0,1-.18-.18V1.037a.181.181,0,0,1,.18-.18h17.042A.548.548,0,0,1,454.56,1.018Zm-3.33,6.114a1.06,1.06,0,0,0-.852-.416H443.8a.541.541,0,0,0-.541.541V24.743a.541.541,0,0,0,.541.541h6.581a1.07,1.07,0,0,0,.853-.416A14.721,14.721,0,0,0,451.23,7.132ZM367.549,1.037V30.963a.181.181,0,0,1-.18.18H361.42a.181.181,0,0,1-.181-.18V19.47a.542.542,0,0,0-.54-.541H349.74a.541.541,0,0,0-.541.541V30.963a.181.181,0,0,1-.181.18h-5.949a.182.182,0,0,1-.18-.18V1.037a.182.182,0,0,1,.18-.18h5.949a.181.181,0,0,1,.181.18V12.529a.541.541,0,0,0,.541.541H360.7a.542.542,0,0,0,.54-.541V1.037a.181.181,0,0,1,.181-.18h5.949A.181.181,0,0,1,367.549,1.037ZM394.33.857a.548.548,0,0,1,.388.161,21.25,21.25,0,0,1,0,29.964.548.548,0,0,1-.388.161H381.775a.548.548,0,0,1-.388-.161,21.25,21.25,0,0,1,0-29.964.548.548,0,0,1,.388-.161H394.33Zm-2.936,24.012a14.721,14.721,0,0,0,0-17.738,1.064,1.064,0,0,0-.852-.415h-4.975a1.07,1.07,0,0,0-.853.415,14.724,14.724,0,0,0,0,17.738,1.07,1.07,0,0,0,.853.415h4.973a1.064,1.064,0,0,0,.852-.415Zm38.117.593v5.5a.181.181,0,0,1-.181.181H409.1a.182.182,0,0,1-.18-.18V1.037a.182.182,0,0,1,.18-.18h5.95a.182.182,0,0,1,.18.18V24.743a.541.541,0,0,0,.541.541H429.33A.18.18,0,0,1,429.511,25.462Z" fill="#231815"/></svg>